<mxfile host="app.diagrams.net" modified="2020-05-18T14:44:49.710Z" agent="5.0 (Macintosh; Intel Mac OS X 10_15_3) AppleWebKit/605.1.15 (KHTML, like Gecko) Version/13.0.5 Safari/605.1.15" etag="n0NiD7a7kO6cuGoyHRsg" version="12.9.12" type="github">
  <diagram id="3ChKobuoZKqZvx7yNvab" name="Page-1">
    <mxGraphModel dx="1240" dy="768" grid="1" gridSize="10" guides="1" tooltips="1" connect="1" arrows="1" fold="1" page="1" pageScale="1" pageWidth="827" pageHeight="1169" math="0" shadow="0">
      <root>
        <mxCell id="0" />
        <mxCell id="1" parent="0" />
        <mxCell id="a0jC55dXt6eBEB4kqR6y-13" style="edgeStyle=orthogonalEdgeStyle;rounded=0;orthogonalLoop=1;jettySize=auto;html=1;exitX=0.5;exitY=1;exitDx=0;exitDy=0;entryX=0.5;entryY=0;entryDx=0;entryDy=0;" parent="1" source="YTcx9iLwEz3lk8RtwIIG-1" target="a0jC55dXt6eBEB4kqR6y-1" edge="1">
          <mxGeometry relative="1" as="geometry" />
        </mxCell>
        <mxCell id="YTcx9iLwEz3lk8RtwIIG-1" value="前台首页php" style="rounded=1;whiteSpace=wrap;html=1;" parent="1" vertex="1">
          <mxGeometry x="610" y="50" width="120" height="40" as="geometry" />
        </mxCell>
        <mxCell id="a0jC55dXt6eBEB4kqR6y-1" value="数据层API" style="rounded=1;whiteSpace=wrap;html=1;" parent="1" vertex="1">
          <mxGeometry x="610" y="140" width="120" height="40" as="geometry" />
        </mxCell>
        <mxCell id="a0jC55dXt6eBEB4kqR6y-16" style="edgeStyle=orthogonalEdgeStyle;rounded=0;orthogonalLoop=1;jettySize=auto;html=1;exitX=0;exitY=0.5;exitDx=0;exitDy=0;entryX=1;entryY=0.75;entryDx=0;entryDy=0;" parent="1" source="a0jC55dXt6eBEB4kqR6y-2" target="a0jC55dXt6eBEB4kqR6y-3" edge="1">
          <mxGeometry relative="1" as="geometry" />
        </mxCell>
        <mxCell id="a0jC55dXt6eBEB4kqR6y-2" value="拨测DB(HBASE)" style="shape=cylinder;whiteSpace=wrap;html=1;boundedLbl=1;backgroundOutline=1;" parent="1" vertex="1">
          <mxGeometry x="610" y="220" width="120" height="60" as="geometry" />
        </mxCell>
        <mxCell id="a0jC55dXt6eBEB4kqR6y-3" value="告警分析python" style="rounded=1;whiteSpace=wrap;html=1;" parent="1" vertex="1">
          <mxGeometry x="460" y="220" width="120" height="40" as="geometry" />
        </mxCell>
        <mxCell id="a0jC55dXt6eBEB4kqR6y-4" value="拨测SVR" style="rounded=1;whiteSpace=wrap;html=1;" parent="1" vertex="1">
          <mxGeometry x="610" y="320" width="120" height="40" as="geometry" />
        </mxCell>
        <mxCell id="a0jC55dXt6eBEB4kqR6y-5" value="拨测Agent" style="rounded=1;whiteSpace=wrap;html=1;" parent="1" vertex="1">
          <mxGeometry x="610" y="380" width="120" height="40" as="geometry" />
        </mxCell>
        <mxCell id="a0jC55dXt6eBEB4kqR6y-8" value="10.248.112.126&lt;br&gt;10.248.113.142&lt;br&gt;10.248.114.130&lt;br&gt;10.244.105.229（待）天津电信" style="rounded=1;whiteSpace=wrap;html=1;" parent="1" vertex="1">
          <mxGeometry x="640" y="790" width="120" height="90" as="geometry" />
        </mxCell>
        <mxCell id="a0jC55dXt6eBEB4kqR6y-9" value="10.248.112.128&lt;br&gt;天津联通" style="rounded=1;whiteSpace=wrap;html=1;" parent="1" vertex="1">
          <mxGeometry x="520" y="890" width="110" height="90" as="geometry" />
        </mxCell>
        <mxCell id="a0jC55dXt6eBEB4kqR6y-10" value="10.248.112.13&lt;br&gt;10.248.112.121&lt;br&gt;9.6.167.42（待）&lt;br&gt;天津移动" style="rounded=1;whiteSpace=wrap;html=1;" parent="1" vertex="1">
          <mxGeometry x="520" y="790" width="110" height="90" as="geometry" />
        </mxCell>
        <mxCell id="a0jC55dXt6eBEB4kqR6y-11" value="&lt;div&gt;10.242.6.79&lt;/div&gt;&lt;div&gt;10.58.90.115&lt;/div&gt;&lt;div&gt;10.236.3.104&lt;/div&gt;&lt;div&gt;10.236.3.82&lt;/div&gt;&lt;div&gt;上海移动&lt;/div&gt;" style="rounded=1;whiteSpace=wrap;html=1;" parent="1" vertex="1">
          <mxGeometry x="520" y="520" width="110" height="90" as="geometry" />
        </mxCell>
        <mxCell id="a0jC55dXt6eBEB4kqR6y-12" value="&lt;div&gt;10.246.138.205&lt;/div&gt;&lt;div&gt;10.246.138.210&lt;/div&gt;&lt;div&gt;10.246.138.207&lt;/div&gt;&lt;div&gt;10.246.138.208&lt;/div&gt;&lt;div&gt;上海电信&lt;/div&gt;" style="rounded=1;whiteSpace=wrap;html=1;" parent="1" vertex="1">
          <mxGeometry x="640" y="520" width="110" height="90" as="geometry" />
        </mxCell>
        <mxCell id="a0jC55dXt6eBEB4kqR6y-14" value="" style="endArrow=classic;startArrow=classic;html=1;entryX=0.5;entryY=1;entryDx=0;entryDy=0;exitX=0.5;exitY=0;exitDx=0;exitDy=0;" parent="1" source="a0jC55dXt6eBEB4kqR6y-2" target="a0jC55dXt6eBEB4kqR6y-1" edge="1">
          <mxGeometry width="50" height="50" relative="1" as="geometry">
            <mxPoint x="700" y="440" as="sourcePoint" />
            <mxPoint x="750" y="390" as="targetPoint" />
          </mxGeometry>
        </mxCell>
        <mxCell id="a0jC55dXt6eBEB4kqR6y-15" value="" style="endArrow=classic;startArrow=classic;html=1;entryX=0.5;entryY=1;entryDx=0;entryDy=0;exitX=0.5;exitY=0;exitDx=0;exitDy=0;" parent="1" source="a0jC55dXt6eBEB4kqR6y-4" target="a0jC55dXt6eBEB4kqR6y-2" edge="1">
          <mxGeometry width="50" height="50" relative="1" as="geometry">
            <mxPoint x="700" y="440" as="sourcePoint" />
            <mxPoint x="750" y="390" as="targetPoint" />
          </mxGeometry>
        </mxCell>
        <mxCell id="a0jC55dXt6eBEB4kqR6y-17" value="" style="endArrow=classic;startArrow=classic;html=1;entryX=0.5;entryY=1;entryDx=0;entryDy=0;exitX=0.5;exitY=0;exitDx=0;exitDy=0;" parent="1" source="a0jC55dXt6eBEB4kqR6y-5" target="a0jC55dXt6eBEB4kqR6y-4" edge="1">
          <mxGeometry width="50" height="50" relative="1" as="geometry">
            <mxPoint x="700" y="440" as="sourcePoint" />
            <mxPoint x="750" y="390" as="targetPoint" />
          </mxGeometry>
        </mxCell>
        <mxCell id="a0jC55dXt6eBEB4kqR6y-18" value="&lt;div&gt;9.114.5.18&lt;/div&gt;&lt;div&gt;9.114.4.190&lt;/div&gt;&lt;div&gt;10.236.3.238&lt;/div&gt;&lt;div&gt;上海联通&lt;/div&gt;" style="rounded=1;whiteSpace=wrap;html=1;" parent="1" vertex="1">
          <mxGeometry x="580" y="620" width="110" height="90" as="geometry" />
        </mxCell>
        <mxCell id="a0jC55dXt6eBEB4kqR6y-19" value="&lt;div&gt;9.89.28.218（电）&lt;/div&gt;&lt;div&gt;9.89.28.227（联）&lt;/div&gt;&lt;div&gt;9.89.29.175（腾）&lt;/div&gt;&lt;div&gt;9.89.29.225（移）&lt;/div&gt;&lt;div&gt;上海一区&lt;/div&gt;" style="rounded=1;whiteSpace=wrap;html=1;" parent="1" vertex="1">
          <mxGeometry x="850" y="520" width="110" height="90" as="geometry" />
        </mxCell>
        <mxCell id="a0jC55dXt6eBEB4kqR6y-20" value="&lt;div&gt;9.142.168.125&lt;/div&gt;&lt;div&gt;9.142.168.137&lt;/div&gt;&lt;div&gt;9.142.168.63&lt;/div&gt;&lt;div&gt;9.142.168.96&lt;/div&gt;&lt;div&gt;上海二区（腾）&lt;/div&gt;" style="rounded=1;whiteSpace=wrap;html=1;" parent="1" vertex="1">
          <mxGeometry x="970" y="520" width="110" height="90" as="geometry" />
        </mxCell>
        <mxCell id="a0jC55dXt6eBEB4kqR6y-21" value="4核8G" style="text;html=1;strokeColor=none;fillColor=none;align=center;verticalAlign=middle;whiteSpace=wrap;rounded=0;" parent="1" vertex="1">
          <mxGeometry x="950" y="500" width="40" height="20" as="geometry" />
        </mxCell>
        <mxCell id="a0jC55dXt6eBEB4kqR6y-22" value="&lt;div&gt;9.77.245.28（移）&lt;/div&gt;&lt;div&gt;9.77.246.39（腾）&lt;/div&gt;&lt;div&gt;9.83.136.45（电）&lt;/div&gt;&lt;div&gt;9.83.139.46（联）&lt;/div&gt;&lt;div&gt;上海三区&lt;/div&gt;" style="rounded=1;whiteSpace=wrap;html=1;" parent="1" vertex="1">
          <mxGeometry x="850" y="620" width="110" height="90" as="geometry" />
        </mxCell>
        <mxCell id="a0jC55dXt6eBEB4kqR6y-25" value="&lt;div&gt;9.88.184.184（电）&lt;/div&gt;&lt;div&gt;9.88.184.199（腾）&lt;/div&gt;&lt;div&gt;9.88.184.77（联）&lt;/div&gt;&lt;div&gt;9.88.185.213（移）&lt;/div&gt;&lt;div&gt;上海四区&lt;/div&gt;" style="rounded=1;whiteSpace=wrap;html=1;" parent="1" vertex="1">
          <mxGeometry x="970" y="620" width="110" height="90" as="geometry" />
        </mxCell>
        <mxCell id="a0jC55dXt6eBEB4kqR6y-26" value="" style="endArrow=none;dashed=1;html=1;" parent="1" edge="1">
          <mxGeometry width="50" height="50" relative="1" as="geometry">
            <mxPoint x="1310" y="500" as="sourcePoint" />
            <mxPoint x="1320" y="500" as="targetPoint" />
            <Array as="points">
              <mxPoint x="840" y="500" />
              <mxPoint x="840" y="730" />
              <mxPoint x="1320" y="730" />
            </Array>
          </mxGeometry>
        </mxCell>
        <mxCell id="a0jC55dXt6eBEB4kqR6y-27" value="" style="endArrow=none;dashed=1;html=1;" parent="1" edge="1">
          <mxGeometry width="50" height="50" relative="1" as="geometry">
            <mxPoint x="770" y="500" as="sourcePoint" />
            <mxPoint x="770" y="500" as="targetPoint" />
            <Array as="points">
              <mxPoint x="500" y="500" />
              <mxPoint x="500" y="730" />
              <mxPoint x="770" y="730" />
            </Array>
          </mxGeometry>
        </mxCell>
        <mxCell id="a0jC55dXt6eBEB4kqR6y-28" value="" style="endArrow=none;dashed=1;html=1;" parent="1" edge="1">
          <mxGeometry width="50" height="50" relative="1" as="geometry">
            <mxPoint x="770" y="770" as="sourcePoint" />
            <mxPoint x="770" y="770" as="targetPoint" />
            <Array as="points">
              <mxPoint x="500" y="770" />
              <mxPoint x="500" y="1000" />
              <mxPoint x="770" y="1000" />
            </Array>
          </mxGeometry>
        </mxCell>
        <mxCell id="a0jC55dXt6eBEB4kqR6y-29" value="天津12台" style="text;html=1;strokeColor=none;fillColor=none;align=center;verticalAlign=middle;whiteSpace=wrap;rounded=0;" parent="1" vertex="1">
          <mxGeometry x="670" y="770" width="70" height="20" as="geometry" />
        </mxCell>
        <mxCell id="a0jC55dXt6eBEB4kqR6y-31" value="直播拨测机16台" style="text;html=1;strokeColor=none;fillColor=none;align=center;verticalAlign=middle;whiteSpace=wrap;rounded=0;" parent="1" vertex="1">
          <mxGeometry x="1010" y="500" width="100" height="20" as="geometry" />
        </mxCell>
        <mxCell id="a0jC55dXt6eBEB4kqR6y-32" value="上海11台" style="text;html=1;strokeColor=none;fillColor=none;align=center;verticalAlign=middle;whiteSpace=wrap;rounded=0;" parent="1" vertex="1">
          <mxGeometry x="660" y="500" width="70" height="20" as="geometry" />
        </mxCell>
        <mxCell id="a0jC55dXt6eBEB4kqR6y-34" value="&lt;div&gt;&lt;br&gt;&lt;/div&gt;&lt;div&gt;10.59.187.49（腾）&lt;/div&gt;&lt;div&gt;10.59.195.141（电）&lt;/div&gt;&lt;div&gt;10.59.195.184（联）&lt;/div&gt;&lt;div&gt;9.86.185.78（移）&lt;/div&gt;&lt;div&gt;广州三区&lt;/div&gt;&lt;div&gt;&lt;br&gt;&lt;/div&gt;" style="rounded=1;whiteSpace=wrap;html=1;align=center;" parent="1" vertex="1">
          <mxGeometry x="850" y="805" width="120" height="90" as="geometry" />
        </mxCell>
        <mxCell id="a0jC55dXt6eBEB4kqR6y-35" value="&lt;div&gt;&lt;div&gt;100.125.54.47（移）&lt;/div&gt;&lt;div&gt;100.125.55.21（电）&lt;/div&gt;&lt;div&gt;100.125.55.226（联）&lt;/div&gt;&lt;div&gt;100.125.55.44（腾）&lt;/div&gt;&lt;/div&gt;&lt;div&gt;广州四区&lt;/div&gt;" style="rounded=1;whiteSpace=wrap;html=1;" parent="1" vertex="1">
          <mxGeometry x="980" y="805" width="120" height="90" as="geometry" />
        </mxCell>
        <mxCell id="a0jC55dXt6eBEB4kqR6y-36" value="&lt;div&gt;&lt;div&gt;10.223.153.248（深圳联通）&lt;/div&gt;&lt;div&gt;10.223.153.245（深圳联通）&lt;/div&gt;&lt;div&gt;10.223.153.226（深圳联通）&lt;/div&gt;&lt;div&gt;10.223.153.232（深圳电信）&lt;/div&gt;&lt;div&gt;10.223.153.168（深圳移动）&lt;/div&gt;&lt;div&gt;10.223.153.186（深圳移动）&lt;/div&gt;&lt;div&gt;10.223.153.236（深圳电信）&lt;/div&gt;&lt;div&gt;10.223.153.182（深圳移动）&lt;/div&gt;&lt;div&gt;10.250.100.66（广州其他）&lt;/div&gt;&lt;div&gt;10.53.88.25（腾深）&lt;/div&gt;&lt;div&gt;10.53.88.26（腾深）&lt;/div&gt;&lt;/div&gt;&lt;div&gt;10.182.48.16（无信息，广州其他）&lt;/div&gt;&lt;div&gt;129.204.166.152（腾讯云广州）&lt;/div&gt;&lt;div&gt;172.16.0.16（广四腾）&lt;/div&gt;&lt;div&gt;172.16.0.3（广四腾）（损坏下线了）&lt;/div&gt;&lt;div&gt;127.16.0.8（广四腾）&lt;/div&gt;" style="rounded=1;whiteSpace=wrap;html=1;align=left;" parent="1" vertex="1">
          <mxGeometry x="860" y="930" width="220" height="250" as="geometry" />
        </mxCell>
        <mxCell id="a0jC55dXt6eBEB4kqR6y-37" value="" style="endArrow=none;dashed=1;html=1;" parent="1" edge="1">
          <mxGeometry width="50" height="50" relative="1" as="geometry">
            <mxPoint x="460" y="1210" as="sourcePoint" />
            <mxPoint x="460" y="1210" as="targetPoint" />
            <Array as="points">
              <mxPoint x="460" y="480" />
              <mxPoint x="1330" y="480" />
              <mxPoint x="1330" y="1300" />
              <mxPoint x="780" y="1210" />
            </Array>
          </mxGeometry>
        </mxCell>
        <mxCell id="a0jC55dXt6eBEB4kqR6y-41" value="" style="endArrow=classic;html=1;exitX=0.5;exitY=1;exitDx=0;exitDy=0;" parent="1" source="a0jC55dXt6eBEB4kqR6y-5" edge="1">
          <mxGeometry width="50" height="50" relative="1" as="geometry">
            <mxPoint x="550" y="440" as="sourcePoint" />
            <mxPoint x="670" y="450" as="targetPoint" />
          </mxGeometry>
        </mxCell>
        <mxCell id="a0jC55dXt6eBEB4kqR6y-42" value="16台，2台无信息，3台腾云" style="text;html=1;strokeColor=none;fillColor=none;align=center;verticalAlign=middle;whiteSpace=wrap;rounded=0;" parent="1" vertex="1">
          <mxGeometry x="1120" y="925" width="170" height="20" as="geometry" />
        </mxCell>
        <mxCell id="a0jC55dXt6eBEB4kqR6y-44" value="" style="endArrow=none;dashed=1;html=1;" parent="1" edge="1">
          <mxGeometry width="50" height="50" relative="1" as="geometry">
            <mxPoint x="1310" y="750" as="sourcePoint" />
            <mxPoint x="1310" y="760" as="targetPoint" />
            <Array as="points">
              <mxPoint x="845" y="750" />
              <mxPoint x="845" y="905" />
              <mxPoint x="1310" y="905" />
            </Array>
          </mxGeometry>
        </mxCell>
        <mxCell id="a0jC55dXt6eBEB4kqR6y-45" value="直播拨测机8台" style="text;html=1;strokeColor=none;fillColor=none;align=center;verticalAlign=middle;whiteSpace=wrap;rounded=0;" parent="1" vertex="1">
          <mxGeometry x="930" y="767.5" width="100" height="20" as="geometry" />
        </mxCell>
        <mxCell id="a0jC55dXt6eBEB4kqR6y-46" value="&lt;div&gt;9.145.160.22&lt;/div&gt;&lt;div&gt;9.145.160.25&lt;/div&gt;&lt;div&gt;9.145.160.42&lt;/div&gt;&lt;div&gt;9.145.160.49&lt;/div&gt;天津一区" style="rounded=1;whiteSpace=wrap;html=1;" parent="1" vertex="1">
          <mxGeometry x="650" y="910" width="110" height="90" as="geometry" />
        </mxCell>
        <mxCell id="a0jC55dXt6eBEB4kqR6y-47" value="&lt;div&gt;10.246.138.209&lt;/div&gt;&lt;div&gt;10.246.139.21&lt;/div&gt;&lt;div&gt;浙江电信&lt;/div&gt;" style="rounded=1;whiteSpace=wrap;html=1;" parent="1" vertex="1">
          <mxGeometry x="570" y="1090" width="120" height="60" as="geometry" />
        </mxCell>
        <mxCell id="a0jC55dXt6eBEB4kqR6y-48" value="浙江2台" style="text;html=1;strokeColor=none;fillColor=none;align=center;verticalAlign=middle;whiteSpace=wrap;rounded=0;" parent="1" vertex="1">
          <mxGeometry x="672.5" y="1060" width="75" height="20" as="geometry" />
        </mxCell>
        <mxCell id="a0jC55dXt6eBEB4kqR6y-52" value="" style="endArrow=none;dashed=1;html=1;" parent="1" edge="1">
          <mxGeometry width="50" height="50" relative="1" as="geometry">
            <mxPoint x="760" y="1050" as="sourcePoint" />
            <mxPoint x="760" y="1050" as="targetPoint" />
            <Array as="points">
              <mxPoint x="500" y="1050" />
              <mxPoint x="500" y="1169" />
              <mxPoint x="760" y="1169" />
            </Array>
          </mxGeometry>
        </mxCell>
        <mxCell id="a0jC55dXt6eBEB4kqR6y-38" value="&lt;font style=&quot;font-size: 24px&quot;&gt;拨测Agent4个默认区域（天津，上海，广东，浙江）65台&lt;/font&gt;" style="text;html=1;strokeColor=none;fillColor=none;align=center;verticalAlign=middle;whiteSpace=wrap;rounded=0;" parent="1" vertex="1">
          <mxGeometry x="470" y="470" width="610" height="20" as="geometry" />
        </mxCell>
        <mxCell id="a0jC55dXt6eBEB4kqR6y-55" value="172.16.14.14&lt;br&gt;172.16.14.17&lt;br&gt;曼谷腾讯云" style="rounded=1;whiteSpace=wrap;html=1;" parent="1" vertex="1">
          <mxGeometry x="310" y="535" width="120" height="60" as="geometry" />
        </mxCell>
        <mxCell id="a0jC55dXt6eBEB4kqR6y-56" value="&lt;div&gt;9.80.131.135&lt;/div&gt;&lt;div&gt;曼谷一区&lt;/div&gt;" style="rounded=1;whiteSpace=wrap;html=1;" parent="1" vertex="1">
          <mxGeometry x="310" y="600" width="120" height="60" as="geometry" />
        </mxCell>
        <mxCell id="a0jC55dXt6eBEB4kqR6y-57" value="&lt;div&gt;10.116.104.121（腾）&lt;/div&gt;&lt;div&gt;10.116.108.102（腾）&lt;/div&gt;&lt;div&gt;10.116.60.118（other）&lt;/div&gt;&lt;div&gt;10.116.60.119(other)&lt;/div&gt;&lt;div&gt;加拿大巴里(需裁撤替换)&lt;/div&gt;" style="rounded=1;whiteSpace=wrap;html=1;" parent="1" vertex="1">
          <mxGeometry x="109" y="530" width="140" height="110" as="geometry" />
        </mxCell>
        <mxCell id="a0jC55dXt6eBEB4kqR6y-58" value="&lt;div&gt;100.102.12.182&lt;/div&gt;&lt;div&gt;100.102.12.183&lt;/div&gt;&lt;div&gt;9.65.33.236（直播:腾）&lt;br&gt;&lt;/div&gt;&lt;div&gt;172.16.10.14（腾）&lt;/div&gt;&lt;div&gt;172.16.10.13(腾)&lt;/div&gt;&lt;div&gt;加州硅谷&lt;/div&gt;" style="rounded=1;whiteSpace=wrap;html=1;" parent="1" vertex="1">
          <mxGeometry x="114" y="650" width="130" height="90" as="geometry" />
        </mxCell>
        <mxCell id="a0jC55dXt6eBEB4kqR6y-59" value="&lt;div&gt;&lt;br&gt;&lt;/div&gt;&lt;div&gt;100.120.26.47（腾）&lt;/div&gt;&lt;div&gt;德国法兰克福&lt;/div&gt;" style="rounded=1;whiteSpace=wrap;html=1;" parent="1" vertex="1">
          <mxGeometry x="305" y="1045" width="120" height="50" as="geometry" />
        </mxCell>
        <mxCell id="a0jC55dXt6eBEB4kqR6y-60" value="&lt;div&gt;172.28.0.13（腾）&lt;/div&gt;&lt;div&gt;172.28.0.9（腾）&lt;/div&gt;&lt;div&gt;9.70.0.69（直播:腾）&lt;/div&gt;&lt;div&gt;德国法兰克福一区&lt;/div&gt;" style="rounded=1;whiteSpace=wrap;html=1;" parent="1" vertex="1">
          <mxGeometry x="305" y="1110" width="120" height="90" as="geometry" />
        </mxCell>
        <mxCell id="a0jC55dXt6eBEB4kqR6y-61" value="&lt;div&gt;&lt;br&gt;&lt;/div&gt;&lt;div&gt;9.84.2.71（直播:腾）&lt;/div&gt;&lt;div&gt;莫斯科&lt;/div&gt;" style="rounded=1;whiteSpace=wrap;html=1;" parent="1" vertex="1">
          <mxGeometry x="305" y="982.5" width="120" height="50" as="geometry" />
        </mxCell>
        <mxCell id="a0jC55dXt6eBEB4kqR6y-62" value="&lt;div&gt;9.76.131.45&lt;br&gt;&lt;/div&gt;&lt;div&gt;印度孟买&lt;/div&gt;" style="rounded=1;whiteSpace=wrap;html=1;" parent="1" vertex="1">
          <mxGeometry x="305" y="680" width="130" height="40" as="geometry" />
        </mxCell>
        <mxCell id="a0jC55dXt6eBEB4kqR6y-64" value="&lt;div&gt;9.75.2.124&lt;/div&gt;&lt;div&gt;美国圣克拉拉&lt;/div&gt;" style="rounded=1;whiteSpace=wrap;html=1;" parent="1" vertex="1">
          <mxGeometry x="114" y="790" width="120" height="40" as="geometry" />
        </mxCell>
        <mxCell id="a0jC55dXt6eBEB4kqR6y-65" value="&lt;div&gt;100.78.64.128&lt;/div&gt;&lt;div&gt;100.78.64.126&lt;/div&gt;&lt;div&gt;100.78.64.127&lt;/div&gt;&lt;div&gt;新加坡&lt;/div&gt;" style="rounded=1;whiteSpace=wrap;html=1;" parent="1" vertex="1">
          <mxGeometry x="305" y="725" width="130" height="80" as="geometry" />
        </mxCell>
        <mxCell id="a0jC55dXt6eBEB4kqR6y-66" value="&lt;div&gt;100.125.39.139&lt;/div&gt;&lt;div&gt;新加坡一区&lt;/div&gt;" style="rounded=1;whiteSpace=wrap;html=1;" parent="1" vertex="1">
          <mxGeometry x="305" y="817.5" width="130" height="60" as="geometry" />
        </mxCell>
        <mxCell id="a0jC55dXt6eBEB4kqR6y-67" value="&lt;div&gt;9.74.139.156（直播）&lt;/div&gt;&lt;div&gt;美国佛吉尼亚&lt;/div&gt;" style="rounded=1;whiteSpace=wrap;html=1;" parent="1" vertex="1">
          <mxGeometry x="112" y="745" width="130" height="40" as="geometry" />
        </mxCell>
        <mxCell id="a0jC55dXt6eBEB4kqR6y-68" value="&lt;div&gt;9.131.134.83(other)&lt;/div&gt;&lt;div&gt;9.131.134.247(other)&lt;/div&gt;&lt;div&gt;10.145.0.252（电）&lt;/div&gt;&lt;div&gt;10.145.1.7（电）&lt;/div&gt;&lt;div&gt;10.145.14.72（腾）&lt;/div&gt;&lt;div&gt;10.243.144.136（other）&lt;/div&gt;&lt;div&gt;香港葵涌（需裁撤替换）&lt;/div&gt;" style="rounded=1;whiteSpace=wrap;html=1;" parent="1" vertex="1">
          <mxGeometry x="114" y="877.5" width="140" height="155" as="geometry" />
        </mxCell>
        <mxCell id="a0jC55dXt6eBEB4kqR6y-69" value="&lt;div&gt;10.145.83.224（直播:腾）&lt;br&gt;&lt;/div&gt;&lt;div&gt;香港葵涌一区&lt;/div&gt;" style="rounded=1;whiteSpace=wrap;html=1;" parent="1" vertex="1">
          <mxGeometry x="110" y="1060" width="144" height="60" as="geometry" />
        </mxCell>
        <mxCell id="a0jC55dXt6eBEB4kqR6y-70" value="&lt;div&gt;9.74.19.155（直播:腾）&lt;/div&gt;&lt;div&gt;香港将军澳二区&lt;/div&gt;" style="rounded=1;whiteSpace=wrap;html=1;" parent="1" vertex="1">
          <mxGeometry x="110" y="1140" width="144" height="60" as="geometry" />
        </mxCell>
        <mxCell id="a0jC55dXt6eBEB4kqR6y-71" value="" style="endArrow=none;dashed=1;html=1;" parent="1" edge="1">
          <mxGeometry width="50" height="50" relative="1" as="geometry">
            <mxPoint x="270" y="850" as="sourcePoint" />
            <mxPoint x="270" y="850" as="targetPoint" />
            <Array as="points">
              <mxPoint x="90" y="850" />
              <mxPoint x="90" y="1205" />
              <mxPoint x="270" y="1205" />
            </Array>
          </mxGeometry>
        </mxCell>
        <mxCell id="a0jC55dXt6eBEB4kqR6y-72" value="香港8台" style="text;html=1;strokeColor=none;fillColor=none;align=center;verticalAlign=middle;whiteSpace=wrap;rounded=0;" parent="1" vertex="1">
          <mxGeometry x="190" y="857.5" width="55" height="20" as="geometry" />
        </mxCell>
        <mxCell id="a0jC55dXt6eBEB4kqR6y-73" value="" style="endArrow=none;dashed=1;html=1;" parent="1" edge="1">
          <mxGeometry width="50" height="50" relative="1" as="geometry">
            <mxPoint x="269" y="505" as="sourcePoint" />
            <mxPoint x="269" y="505" as="targetPoint" />
            <Array as="points">
              <mxPoint x="89" y="505" />
              <mxPoint x="89" y="840" />
              <mxPoint x="269" y="840" />
            </Array>
          </mxGeometry>
        </mxCell>
        <mxCell id="a0jC55dXt6eBEB4kqR6y-74" value="北美11台" style="text;html=1;strokeColor=none;fillColor=none;align=center;verticalAlign=middle;whiteSpace=wrap;rounded=0;" parent="1" vertex="1">
          <mxGeometry x="180" y="510" width="62" height="20" as="geometry" />
        </mxCell>
        <mxCell id="a0jC55dXt6eBEB4kqR6y-75" value="" style="endArrow=none;dashed=1;html=1;" parent="1" edge="1">
          <mxGeometry width="50" height="50" relative="1" as="geometry">
            <mxPoint x="450" y="500" as="sourcePoint" />
            <mxPoint x="450" y="500" as="targetPoint" />
            <Array as="points">
              <mxPoint x="290" y="500" />
              <mxPoint x="290" y="890" />
              <mxPoint x="450" y="890" />
            </Array>
          </mxGeometry>
        </mxCell>
        <mxCell id="a0jC55dXt6eBEB4kqR6y-76" value="" style="endArrow=none;dashed=1;html=1;" parent="1" edge="1">
          <mxGeometry width="50" height="50" relative="1" as="geometry">
            <mxPoint x="440" y="922.5" as="sourcePoint" />
            <mxPoint x="440" y="922.5" as="targetPoint" />
            <Array as="points">
              <mxPoint x="290" y="923" />
              <mxPoint x="290" y="1210" />
              <mxPoint x="440" y="1210" />
            </Array>
          </mxGeometry>
        </mxCell>
        <mxCell id="a0jC55dXt6eBEB4kqR6y-78" value="东南亚7台" style="text;html=1;strokeColor=none;fillColor=none;align=center;verticalAlign=middle;whiteSpace=wrap;rounded=0;" parent="1" vertex="1">
          <mxGeometry x="373" y="510" width="62" height="20" as="geometry" />
        </mxCell>
        <mxCell id="a0jC55dXt6eBEB4kqR6y-79" value="欧洲5台" style="text;html=1;strokeColor=none;fillColor=none;align=center;verticalAlign=middle;whiteSpace=wrap;rounded=0;" parent="1" vertex="1">
          <mxGeometry x="368" y="945" width="62" height="20" as="geometry" />
        </mxCell>
        <mxCell id="a0jC55dXt6eBEB4kqR6y-80" value="" style="endArrow=none;dashed=1;html=1;" parent="1" edge="1">
          <mxGeometry width="50" height="50" relative="1" as="geometry">
            <mxPoint x="60" y="1210" as="sourcePoint" />
            <mxPoint x="60" y="1210" as="targetPoint" />
            <Array as="points">
              <mxPoint x="60" y="483" />
              <mxPoint x="450" y="482.5" />
              <mxPoint x="450" y="1212.5" />
              <mxPoint x="150" y="1212.5" />
            </Array>
          </mxGeometry>
        </mxCell>
        <mxCell id="a0jC55dXt6eBEB4kqR6y-81" value="&lt;font style=&quot;font-size: 24px&quot;&gt;拨测Agent国外31台&lt;/font&gt;" style="text;html=1;strokeColor=none;fillColor=none;align=center;verticalAlign=middle;whiteSpace=wrap;rounded=0;" parent="1" vertex="1">
          <mxGeometry x="114" y="470" width="290" height="20" as="geometry" />
        </mxCell>
        <mxCell id="a0jC55dXt6eBEB4kqR6y-82" value="" style="endArrow=none;dashed=1;html=1;" parent="1" edge="1">
          <mxGeometry width="50" height="50" relative="1" as="geometry">
            <mxPoint x="30" y="1232.5" as="sourcePoint" />
            <mxPoint x="30" y="1232.5" as="targetPoint" />
            <Array as="points">
              <mxPoint x="30" y="450" />
              <mxPoint x="1640" y="450" />
              <mxPoint x="1640" y="1670" />
              <mxPoint x="350" y="1232.5" />
            </Array>
          </mxGeometry>
        </mxCell>
        <mxCell id="a0jC55dXt6eBEB4kqR6y-86" style="edgeStyle=orthogonalEdgeStyle;rounded=0;orthogonalLoop=1;jettySize=auto;html=1;exitX=0.5;exitY=0;exitDx=0;exitDy=0;entryX=0.5;entryY=1;entryDx=0;entryDy=0;" parent="1" source="a0jC55dXt6eBEB4kqR6y-83" target="a0jC55dXt6eBEB4kqR6y-85" edge="1">
          <mxGeometry relative="1" as="geometry" />
        </mxCell>
        <mxCell id="a0jC55dXt6eBEB4kqR6y-83" value="数据收集NWS" style="rounded=1;whiteSpace=wrap;html=1;" parent="1" vertex="1">
          <mxGeometry x="750" y="380" width="120" height="40" as="geometry" />
        </mxCell>
        <mxCell id="a0jC55dXt6eBEB4kqR6y-84" value="" style="endArrow=classic;html=1;entryX=0.5;entryY=1;entryDx=0;entryDy=0;" parent="1" target="a0jC55dXt6eBEB4kqR6y-83" edge="1">
          <mxGeometry width="50" height="50" relative="1" as="geometry">
            <mxPoint x="810" y="450" as="sourcePoint" />
            <mxPoint x="660" y="420" as="targetPoint" />
          </mxGeometry>
        </mxCell>
        <mxCell id="a0jC55dXt6eBEB4kqR6y-87" style="edgeStyle=orthogonalEdgeStyle;rounded=0;orthogonalLoop=1;jettySize=auto;html=1;exitX=0.5;exitY=0;exitDx=0;exitDy=0;entryX=1;entryY=0.5;entryDx=0;entryDy=0;" parent="1" source="a0jC55dXt6eBEB4kqR6y-85" target="a0jC55dXt6eBEB4kqR6y-2" edge="1">
          <mxGeometry relative="1" as="geometry" />
        </mxCell>
        <mxCell id="a0jC55dXt6eBEB4kqR6y-85" value="数据处理CDP" style="rounded=1;whiteSpace=wrap;html=1;" parent="1" vertex="1">
          <mxGeometry x="750" y="290" width="120" height="50" as="geometry" />
        </mxCell>
        <mxCell id="a0jC55dXt6eBEB4kqR6y-88" value="&lt;div&gt;10.53.193.149&lt;/div&gt;&lt;div&gt;北京大区天津滨海&lt;/div&gt;" style="rounded=1;whiteSpace=wrap;html=1;" parent="1" vertex="1">
          <mxGeometry x="1500" y="797.5" width="110" height="50" as="geometry" />
        </mxCell>
        <mxCell id="a0jC55dXt6eBEB4kqR6y-89" value="&lt;div&gt;9.67.10.227（电）&lt;/div&gt;&lt;div&gt;9.67.11.167（腾）&lt;/div&gt;&lt;div&gt;9.67.26.224（联）&lt;/div&gt;&lt;div&gt;9.67.32.213（移）&lt;/div&gt;&lt;div&gt;北京一区天津滨海&lt;/div&gt;" style="rounded=1;whiteSpace=wrap;html=1;" parent="1" vertex="1">
          <mxGeometry x="1490" y="677.5" width="110" height="90" as="geometry" />
        </mxCell>
        <mxCell id="a0jC55dXt6eBEB4kqR6y-90" value="&lt;div&gt;9.89.128.129（移）&lt;/div&gt;&lt;div&gt;9.89.128.71（腾）&lt;/div&gt;&lt;div&gt;9.89.129.122（电）&lt;/div&gt;&lt;div&gt;9.89.129.65（联）&lt;/div&gt;&lt;div&gt;北京三区酒仙桥&lt;/div&gt;" style="rounded=1;whiteSpace=wrap;html=1;" parent="1" vertex="1">
          <mxGeometry x="1490" y="577.5" width="110" height="90" as="geometry" />
        </mxCell>
        <mxCell id="a0jC55dXt6eBEB4kqR6y-92" value="直播拨测机8台" style="text;html=1;strokeColor=none;fillColor=none;align=center;verticalAlign=middle;whiteSpace=wrap;rounded=0;" parent="1" vertex="1">
          <mxGeometry x="1500" y="547.5" width="90" height="20" as="geometry" />
        </mxCell>
        <mxCell id="a0jC55dXt6eBEB4kqR6y-94" value="&lt;div&gt;100.93.203.136（电）&lt;/div&gt;&lt;div&gt;100.98.75.167（移）&lt;/div&gt;&lt;div&gt;100.93.203.222（联）&lt;/div&gt;&lt;div&gt;重庆&lt;/div&gt;" style="rounded=1;whiteSpace=wrap;html=1;" parent="1" vertex="1">
          <mxGeometry x="1490" y="867.5" width="130" height="90" as="geometry" />
        </mxCell>
        <mxCell id="a0jC55dXt6eBEB4kqR6y-95" value="&lt;div&gt;9.151.96.131（腾）&lt;/div&gt;&lt;div&gt;9.151.96.206（腾）&lt;/div&gt;&lt;div&gt;9.151.96.231（腾）&lt;/div&gt;&lt;div&gt;9.151.96.232（腾）&lt;/div&gt;&lt;div&gt;江苏&lt;/div&gt;" style="rounded=1;whiteSpace=wrap;html=1;" parent="1" vertex="1">
          <mxGeometry x="1490" y="972.5" width="130" height="90" as="geometry" />
        </mxCell>
        <mxCell id="a0jC55dXt6eBEB4kqR6y-96" value="&lt;div&gt;100.99.31.27（移）&lt;/div&gt;&lt;div&gt;100.99.31.59（移）&lt;/div&gt;&lt;div&gt;100.99.31.36（电）&lt;/div&gt;&lt;div&gt;100.99.31.39（联）&lt;/div&gt;&lt;div&gt;成都&lt;/div&gt;" style="rounded=1;whiteSpace=wrap;html=1;" parent="1" vertex="1">
          <mxGeometry x="1490" y="1077.5" width="130" height="90" as="geometry" />
        </mxCell>
        <mxCell id="a0jC55dXt6eBEB4kqR6y-97" value="" style="endArrow=none;dashed=1;html=1;" parent="1" edge="1">
          <mxGeometry width="50" height="50" relative="1" as="geometry">
            <mxPoint x="1611" y="547.5" as="sourcePoint" />
            <mxPoint x="1611" y="547.5" as="targetPoint" />
            <Array as="points">
              <mxPoint x="1480" y="547.5" />
              <mxPoint x="1480" y="777.5" />
              <mxPoint x="1611" y="777.5" />
            </Array>
          </mxGeometry>
        </mxCell>
        <mxCell id="a0jC55dXt6eBEB4kqR6y-98" value="" style="endArrow=none;dashed=1;html=1;" parent="1" edge="1">
          <mxGeometry width="50" height="50" relative="1" as="geometry">
            <mxPoint x="1631" y="487.5" as="sourcePoint" />
            <mxPoint x="1631" y="487.5" as="targetPoint" />
            <Array as="points">
              <mxPoint x="1470" y="487.5" />
              <mxPoint x="1470" y="1207.5" />
              <mxPoint x="1631" y="1207.5" />
            </Array>
          </mxGeometry>
        </mxCell>
        <mxCell id="a0jC55dXt6eBEB4kqR6y-99" value="&lt;font style=&quot;font-size: 24px&quot;&gt;拨测Agent国内其他20台&lt;/font&gt;" style="text;html=1;strokeColor=none;fillColor=none;align=center;verticalAlign=middle;whiteSpace=wrap;rounded=0;" parent="1" vertex="1">
          <mxGeometry x="1470" y="487.5" width="150" height="20" as="geometry" />
        </mxCell>
        <mxCell id="a0jC55dXt6eBEB4kqR6y-100" value="直播拨测机1台" style="text;html=1;strokeColor=none;fillColor=none;align=center;verticalAlign=middle;whiteSpace=wrap;rounded=0;" parent="1" vertex="1">
          <mxGeometry x="352" y="660" width="94" height="20" as="geometry" />
        </mxCell>
        <mxCell id="a0jC55dXt6eBEB4kqR6y-101" value="直播拨测机4台" style="text;html=1;strokeColor=none;fillColor=none;align=center;verticalAlign=middle;whiteSpace=wrap;rounded=0;" parent="1" vertex="1">
          <mxGeometry x="670" y="890" width="100" height="20" as="geometry" />
        </mxCell>
        <mxCell id="czo80sEgHHQKnNgIDB-t-1" value="监控数据，观测时间1周，粒度5min&lt;br&gt;流量110k&lt;br&gt;CPU负载4" style="text;html=1;strokeColor=none;fillColor=none;align=left;verticalAlign=middle;whiteSpace=wrap;rounded=0;" vertex="1" parent="1">
          <mxGeometry x="1110" y="520" width="200" height="52.5" as="geometry" />
        </mxCell>
        <mxCell id="czo80sEgHHQKnNgIDB-t-2" value="" style="endArrow=none;dashed=1;html=1;" edge="1" parent="1">
          <mxGeometry width="50" height="50" relative="1" as="geometry">
            <mxPoint x="1310" y="920" as="sourcePoint" />
            <mxPoint x="1310" y="930" as="targetPoint" />
            <Array as="points">
              <mxPoint x="850" y="920" />
              <mxPoint x="850" y="1190" />
              <mxPoint x="1310" y="1190" />
            </Array>
          </mxGeometry>
        </mxCell>
        <mxCell id="czo80sEgHHQKnNgIDB-t-3" value="&lt;div style=&quot;text-align: center&quot;&gt;&lt;font face=&quot;helvetica&quot;&gt;深圳联通&lt;/font&gt;&lt;/div&gt;&lt;span style=&quot;font-family: &amp;#34;helvetica&amp;#34; ; font-size: 12px ; font-style: normal ; font-weight: normal ; letter-spacing: normal ; text-align: center ; text-indent: 0px ; text-transform: none ; word-spacing: 0px ; text-decoration: none ; float: none ; display: inline&quot;&gt;流量600k&lt;/span&gt;&lt;br style=&quot;font-family: &amp;#34;helvetica&amp;#34; ; font-size: 12px ; font-style: normal ; font-weight: normal ; letter-spacing: normal ; text-align: center ; text-indent: 0px ; text-transform: none ; word-spacing: 0px ; text-decoration: none&quot;&gt;&lt;span style=&quot;font-family: &amp;#34;helvetica&amp;#34; ; font-size: 12px ; font-style: normal ; font-weight: normal ; letter-spacing: normal ; text-align: center ; text-indent: 0px ; text-transform: none ; word-spacing: 0px ; text-decoration: none ; float: none ; display: inline&quot;&gt;CPU负载6&lt;/span&gt;" style="text;whiteSpace=wrap;html=1;" vertex="1" parent="1">
          <mxGeometry x="1100" y="950" width="210" height="60" as="geometry" />
        </mxCell>
        <mxCell id="czo80sEgHHQKnNgIDB-t-4" value="&lt;span style=&quot;font-family: &amp;#34;helvetica&amp;#34; ; font-size: 12px ; font-style: normal ; font-weight: normal ; letter-spacing: normal ; text-align: center ; text-indent: 0px ; text-transform: none ; word-spacing: 0px ; text-decoration: none ; float: none ; display: inline&quot;&gt;监控数据，观测时间1周，粒度5min&lt;/span&gt;&lt;br style=&quot;font-family: &amp;#34;helvetica&amp;#34; ; font-size: 12px ; font-style: normal ; font-weight: normal ; letter-spacing: normal ; text-align: center ; text-indent: 0px ; text-transform: none ; word-spacing: 0px ; text-decoration: none&quot;&gt;&lt;span style=&quot;font-family: &amp;#34;helvetica&amp;#34; ; font-size: 12px ; font-style: normal ; font-weight: normal ; letter-spacing: normal ; text-align: center ; text-indent: 0px ; text-transform: none ; word-spacing: 0px ; text-decoration: none ; float: none ; display: inline&quot;&gt;流量600k&lt;/span&gt;&lt;br style=&quot;font-family: &amp;#34;helvetica&amp;#34; ; font-size: 12px ; font-style: normal ; font-weight: normal ; letter-spacing: normal ; text-align: center ; text-indent: 0px ; text-transform: none ; word-spacing: 0px ; text-decoration: none&quot;&gt;&lt;span style=&quot;font-family: &amp;#34;helvetica&amp;#34; ; font-size: 12px ; font-style: normal ; font-weight: normal ; letter-spacing: normal ; text-align: center ; text-indent: 0px ; text-transform: none ; word-spacing: 0px ; text-decoration: none ; float: none ; display: inline&quot;&gt;CPU负载6&lt;/span&gt;" style="text;whiteSpace=wrap;html=1;" vertex="1" parent="1">
          <mxGeometry x="1105" y="757.5" width="210" height="60" as="geometry" />
        </mxCell>
        <mxCell id="czo80sEgHHQKnNgIDB-t-5" value="&lt;div style=&quot;text-align: center&quot;&gt;&lt;font face=&quot;helvetica&quot;&gt;深圳电信&lt;/font&gt;&lt;/div&gt;&lt;span style=&quot;font-family: &amp;#34;helvetica&amp;#34; ; font-size: 12px ; font-style: normal ; font-weight: normal ; letter-spacing: normal ; text-align: center ; text-indent: 0px ; text-transform: none ; word-spacing: 0px ; text-decoration: none ; float: none ; display: inline&quot;&gt;流量10M&lt;/span&gt;&lt;br style=&quot;font-family: &amp;#34;helvetica&amp;#34; ; font-size: 12px ; font-style: normal ; font-weight: normal ; letter-spacing: normal ; text-align: center ; text-indent: 0px ; text-transform: none ; word-spacing: 0px ; text-decoration: none&quot;&gt;&lt;span style=&quot;font-family: &amp;#34;helvetica&amp;#34; ; font-size: 12px ; font-style: normal ; font-weight: normal ; letter-spacing: normal ; text-align: center ; text-indent: 0px ; text-transform: none ; word-spacing: 0px ; text-decoration: none ; float: none ; display: inline&quot;&gt;CPU负载6&lt;/span&gt;" style="text;whiteSpace=wrap;html=1;" vertex="1" parent="1">
          <mxGeometry x="1100" y="1002.5" width="210" height="60" as="geometry" />
        </mxCell>
        <mxCell id="czo80sEgHHQKnNgIDB-t-6" value="&lt;div style=&quot;text-align: center&quot;&gt;&lt;font face=&quot;helvetica&quot;&gt;深圳移动&lt;/font&gt;&lt;/div&gt;&lt;span style=&quot;font-family: &amp;#34;helvetica&amp;#34; ; font-size: 12px ; font-style: normal ; font-weight: normal ; letter-spacing: normal ; text-align: center ; text-indent: 0px ; text-transform: none ; word-spacing: 0px ; text-decoration: none ; float: none ; display: inline&quot;&gt;流量500k&lt;/span&gt;&lt;br style=&quot;font-family: &amp;#34;helvetica&amp;#34; ; font-size: 12px ; font-style: normal ; font-weight: normal ; letter-spacing: normal ; text-align: center ; text-indent: 0px ; text-transform: none ; word-spacing: 0px ; text-decoration: none&quot;&gt;&lt;span style=&quot;font-family: &amp;#34;helvetica&amp;#34; ; font-size: 12px ; font-style: normal ; font-weight: normal ; letter-spacing: normal ; text-align: center ; text-indent: 0px ; text-transform: none ; word-spacing: 0px ; text-decoration: none ; float: none ; display: inline&quot;&gt;CPU负载6&lt;/span&gt;" style="text;whiteSpace=wrap;html=1;" vertex="1" parent="1">
          <mxGeometry x="1100" y="1060" width="210" height="60" as="geometry" />
        </mxCell>
        <mxCell id="czo80sEgHHQKnNgIDB-t-7" value="&lt;div style=&quot;text-align: center&quot;&gt;&lt;font face=&quot;helvetica&quot;&gt;广州四区&lt;/font&gt;&lt;/div&gt;&lt;span style=&quot;font-family: &amp;#34;helvetica&amp;#34; ; font-size: 12px ; font-style: normal ; font-weight: normal ; letter-spacing: normal ; text-align: center ; text-indent: 0px ; text-transform: none ; word-spacing: 0px ; text-decoration: none ; float: none ; display: inline&quot;&gt;流量260k&amp;nbsp;&lt;/span&gt;&lt;br style=&quot;font-family: &amp;#34;helvetica&amp;#34; ; font-size: 12px ; font-style: normal ; font-weight: normal ; letter-spacing: normal ; text-align: center ; text-indent: 0px ; text-transform: none ; word-spacing: 0px ; text-decoration: none&quot;&gt;&lt;span style=&quot;font-family: &amp;#34;helvetica&amp;#34; ; font-size: 12px ; font-style: normal ; font-weight: normal ; letter-spacing: normal ; text-align: center ; text-indent: 0px ; text-transform: none ; word-spacing: 0px ; text-decoration: none ; float: none ; display: inline&quot;&gt;CPU负载5&lt;/span&gt;" style="text;whiteSpace=wrap;html=1;" vertex="1" parent="1">
          <mxGeometry x="1105" y="837.5" width="210" height="60" as="geometry" />
        </mxCell>
      </root>
    </mxGraphModel>
  </diagram>
</mxfile>
